<svg xmlns="http://www.w3.org/2000/svg" version="1.1" xmlns:xlink="http://www.w3.org/1999/xlink" width="1000" height="1000"><g clip-path="url(#SvgjsClipPath1121)"><rect width="1000" height="1000" fill="#ffffff"></rect><g transform="matrix(1.953125,0,0,1.953125,0,0)"><svg xmlns="http://www.w3.org/2000/svg" version="1.1" xmlns:xlink="http://www.w3.org/1999/xlink" width="512" height="512"><svg width="512" height="512" viewBox="0 0 512 512" fill="none" xmlns="http://www.w3.org/2000/svg">
<rect width="512" height="512" rx="20" fill="white"></rect>
<path d="M61.409 292V221H70.009V288L65.709 283.6H105.509V292H61.409ZM110.264 292L135.864 221H147.464L173.064 292H163.664L156.564 271.8H126.764L119.664 292H110.264ZM129.664 263.4H153.664L141.664 228.5L129.664 263.4ZM176.884 292V283.2L214.884 229.4H178.184V221H224.684V229.8L186.684 283.6H225.684V292H176.884ZM228.525 292L254.125 221H265.725L291.325 292H281.925L274.825 271.8H245.025L237.925 292H228.525ZM247.925 263.4H271.925L259.925 228.5L247.925 263.4ZM300.569 292V221H327.469C332.469 221 336.769 221.867 340.369 223.6C343.969 225.333 346.736 227.833 348.669 231.1C350.669 234.3 351.669 238.1 351.669 242.5C351.669 245.7 350.902 248.567 349.369 251.1C347.902 253.567 346.002 255.533 343.669 257C341.336 258.467 338.902 259.267 336.369 259.4L335.769 258.5C340.102 258.5 343.502 259.5 345.969 261.5C348.502 263.5 349.969 266.7 350.369 271.1L352.369 292H343.669L341.869 272C341.602 269.067 340.536 266.9 338.669 265.5C336.869 264.1 333.902 263.4 329.769 263.4H309.169V292H300.569ZM309.169 255H328.569C332.902 255 336.336 253.9 338.869 251.7C341.402 249.5 342.669 246.367 342.669 242.3C342.669 238.167 341.369 235 338.769 232.8C336.169 230.533 332.402 229.4 327.469 229.4H309.169V255ZM363.357 247.9L368.157 232.3H363.057V221H374.357V230.9L368.357 247.9H363.357ZM412.469 293.6C407.002 293.6 402.236 292.567 398.169 290.5C394.102 288.433 390.869 285.6 388.469 282C386.136 278.333 384.769 274.1 384.369 269.3L393.369 268.7C393.836 272.233 394.869 275.233 396.469 277.7C398.069 280.167 400.202 282.033 402.869 283.3C405.602 284.567 408.869 285.2 412.669 285.2C416.002 285.2 418.836 284.767 421.169 283.9C423.502 283.033 425.269 281.767 426.469 280.1C427.736 278.433 428.369 276.4 428.369 274C428.369 271.8 427.836 269.867 426.769 268.2C425.769 266.467 423.802 264.9 420.869 263.5C418.002 262.033 413.736 260.6 408.069 259.2C402.602 257.8 398.236 256.267 394.969 254.6C391.769 252.933 389.436 250.9 387.969 248.5C386.569 246.1 385.869 243.133 385.869 239.6C385.869 235.6 386.802 232.1 388.669 229.1C390.602 226.033 393.336 223.667 396.869 222C400.402 220.267 404.602 219.4 409.469 219.4C414.669 219.4 419.136 220.4 422.869 222.4C426.602 224.333 429.569 227 431.769 230.4C433.969 233.8 435.336 237.667 435.869 242L426.869 242.6C426.469 239.733 425.536 237.2 424.069 235C422.669 232.733 420.736 230.967 418.269 229.7C415.802 228.433 412.802 227.8 409.269 227.8C404.869 227.8 401.369 228.867 398.769 231C396.169 233.067 394.869 235.8 394.869 239.2C394.869 241.4 395.369 243.233 396.369 244.7C397.436 246.1 399.302 247.367 401.969 248.5C404.636 249.567 408.469 250.733 413.469 252C419.402 253.467 424.102 255.233 427.569 257.3C431.102 259.3 433.602 261.633 435.069 264.3C436.602 266.967 437.369 270 437.369 273.4C437.369 277.533 436.302 281.133 434.169 284.2C432.036 287.2 429.102 289.533 425.369 291.2C421.636 292.8 417.336 293.6 412.469 293.6Z" fill="#292624"></path>
<line x1="32" y1="324" x2="481" y2="324" stroke="url(#paint0_linear_193_2)" stroke-width="2"></line>
<path d="M459.9 249.05C458 249.05 456.217 248.7 454.55 248C452.917 247.267 451.467 246.283 450.2 245.05C448.967 243.783 448 242.333 447.3 240.7C446.6 239.033 446.25 237.25 446.25 235.35C446.25 233.45 446.6 231.683 447.3 230.05C448 228.383 448.967 226.933 450.2 225.7C451.467 224.433 452.917 223.45 454.55 222.75C456.217 222.05 458 221.7 459.9 221.7C461.8 221.7 463.567 222.05 465.2 222.75C466.833 223.45 468.267 224.433 469.5 225.7C470.767 226.933 471.75 228.383 472.45 230.05C473.15 231.683 473.5 233.45 473.5 235.35C473.5 237.25 473.15 239.033 472.45 240.7C471.75 242.333 470.767 243.783 469.5 245.05C468.267 246.283 466.833 247.267 465.2 248C463.567 248.7 461.8 249.05 459.9 249.05ZM459.9 246.2C462.033 246.2 463.9 245.717 465.5 244.75C467.1 243.75 468.35 242.433 469.25 240.8C470.183 239.133 470.65 237.317 470.65 235.35C470.65 233.383 470.183 231.583 469.25 229.95C468.35 228.317 467.1 227.017 465.5 226.05C463.9 225.083 462.033 224.6 459.9 224.6C457.767 224.6 455.883 225.083 454.25 226.05C452.65 227.017 451.383 228.317 450.45 229.95C449.55 231.583 449.1 233.383 449.1 235.35C449.1 237.317 449.55 239.133 450.45 240.8C451.383 242.433 452.65 243.75 454.25 244.75C455.883 245.717 457.767 246.2 459.9 246.2ZM454.45 242.85V227.95H459.4C461.333 227.95 462.833 228.35 463.9 229.15C465 229.95 465.55 231.067 465.55 232.5C465.55 233.533 465.267 234.417 464.7 235.15C464.133 235.883 463.333 236.383 462.3 236.65L466.15 242.85H463L459.55 237H457.25V242.85H454.45ZM457.25 234.7H459.8C460.767 234.7 461.517 234.5 462.05 234.1C462.583 233.667 462.85 233.1 462.85 232.4C462.85 231.733 462.583 231.217 462.05 230.85C461.517 230.483 460.767 230.3 459.8 230.3H457.25V234.7Z" fill="#292624"></path>
<defs>
<linearGradient id="paint0_linear_193_2" x1="32" y1="325.5" x2="481" y2="325.5" gradientUnits="userSpaceOnUse">
<stop stop-color="white"></stop>
<stop offset="0.5" stop-color="#B4943E"></stop>
<stop offset="1" stop-color="white"></stop>
</linearGradient>
<clipPath id="SvgjsClipPath1121"><rect width="1000" height="1000" x="0" y="0" rx="300" ry="300"></rect></clipPath></defs>
</svg></svg></g></g></svg>