<svg width="200" height="200" viewBox="0 0 200 200" fill="none" xmlns="http://www.w3.org/2000/svg">
<g clip-path="url(#clip0_85_41)">
<rect width="200" height="200" rx="20" fill="white"/>
<path d="M22.7167 119.864C22.6101 118.964 22.1781 118.266 21.4205 117.768C20.6629 117.271 19.7337 117.023 18.6329 117.023C17.8279 117.023 17.1236 117.153 16.5199 117.413C15.9222 117.674 15.4546 118.032 15.1172 118.488C14.7858 118.943 14.6201 119.461 14.6201 120.041C14.6201 120.527 14.7355 120.944 14.9663 121.293C15.2031 121.636 15.5049 121.923 15.8718 122.154C16.2388 122.379 16.6235 122.565 17.026 122.713C17.4284 122.855 17.7983 122.971 18.1357 123.06L19.9823 123.557C20.4558 123.681 20.9825 123.853 21.5625 124.072C22.1485 124.291 22.7078 124.59 23.2405 124.968C23.779 125.341 24.2229 125.821 24.5721 126.407C24.9213 126.993 25.0959 127.712 25.0959 128.564C25.0959 129.546 24.8385 130.434 24.3236 131.227C23.8146 132.02 23.0688 132.651 22.0863 133.118C21.1098 133.586 19.9231 133.82 18.5263 133.82C17.2242 133.82 16.0968 133.609 15.1439 133.189C14.1969 132.769 13.4512 132.183 12.9066 131.431C12.3681 130.68 12.0633 129.807 11.9922 128.812H14.265C14.3241 129.499 14.555 130.067 14.9574 130.517C15.3658 130.961 15.8807 131.292 16.5022 131.511C17.1295 131.724 17.8043 131.831 18.5263 131.831C19.3668 131.831 20.1214 131.695 20.7902 131.423C21.459 131.144 21.9887 130.76 22.3793 130.268C22.7699 129.771 22.9652 129.191 22.9652 128.528C22.9652 127.925 22.7966 127.433 22.4592 127.055C22.1218 126.676 21.678 126.368 21.1275 126.131C20.5771 125.895 19.9823 125.687 19.3431 125.51L17.1059 124.871C15.6854 124.462 14.5609 123.879 13.7323 123.122C12.9037 122.364 12.4894 121.373 12.4894 120.148C12.4894 119.13 12.7646 118.242 13.315 117.484C13.8714 116.721 14.6171 116.129 15.5522 115.709C16.4933 115.283 17.5438 115.07 18.7039 115.07C19.8758 115.07 20.9174 115.28 21.8289 115.7C22.7403 116.114 23.4624 116.682 23.9951 117.404C24.5337 118.127 24.8178 118.946 24.8473 119.864H22.7167ZM28.0411 133.5V131.902L35.7826 121.959V121.817H28.2897V119.864H38.4815V121.533L30.9531 131.405V131.547H38.7301V133.5H28.0411ZM47.2839 133.784C45.9699 133.784 44.8365 133.494 43.8837 132.914C42.9367 132.328 42.2057 131.511 41.6908 130.464C41.1818 129.41 40.9273 128.185 40.9273 126.788C40.9273 125.392 41.1818 124.161 41.6908 123.095C42.2057 122.024 42.9219 121.189 43.8393 120.592C44.7626 119.988 45.8397 119.686 47.0708 119.686C47.781 119.686 48.4824 119.804 49.1748 120.041C49.8673 120.278 50.4976 120.663 51.0658 121.195C51.634 121.722 52.0868 122.42 52.4241 123.29C52.7615 124.161 52.9302 125.232 52.9302 126.504V127.392H42.4188V125.581H50.7995C50.7995 124.812 50.6456 124.125 50.3378 123.521C50.036 122.918 49.6039 122.441 49.0417 122.092C48.4853 121.743 47.8284 121.568 47.0708 121.568C46.2363 121.568 45.5142 121.775 44.9046 122.19C44.3009 122.598 43.8363 123.131 43.5108 123.788C43.1853 124.445 43.0225 125.149 43.0225 125.901V127.108C43.0225 128.138 43.2001 129.011 43.5552 129.727C43.9162 130.437 44.4163 130.979 45.0555 131.352C45.6947 131.719 46.4375 131.902 47.2839 131.902C47.8343 131.902 48.3315 131.825 48.7753 131.671C49.2252 131.511 49.6128 131.275 49.9383 130.961C50.2639 130.641 50.5154 130.245 50.693 129.771L52.7171 130.339C52.504 131.026 52.146 131.63 51.6429 132.151C51.1398 132.665 50.5184 133.068 49.7785 133.358C49.0387 133.642 48.2072 133.784 47.2839 133.784ZM46.0055 118.017L48.1717 113.898H50.6219L47.8521 118.017H46.0055ZM56.1173 138.614V119.864H58.1415V122.03H58.39C58.5439 121.793 58.757 121.491 59.0293 121.124C59.3074 120.751 59.704 120.42 60.2189 120.13C60.7397 119.834 61.444 119.686 62.3318 119.686C63.48 119.686 64.4921 119.973 65.368 120.547C66.244 121.121 66.9276 121.935 67.4188 122.989C67.9101 124.042 68.1557 125.285 68.1557 126.717C68.1557 128.161 67.9101 129.413 67.4188 130.473C66.9276 131.526 66.2469 132.343 65.3769 132.923C64.5069 133.497 63.5037 133.784 62.3673 133.784C61.4914 133.784 60.79 133.639 60.2633 133.349C59.7365 133.053 59.3311 132.719 59.047 132.346C58.7629 131.967 58.5439 131.653 58.39 131.405H58.2125V138.614H56.1173ZM58.177 126.682C58.177 127.712 58.3279 128.62 58.6297 129.407C58.9316 130.189 59.3725 130.801 59.9525 131.245C60.5326 131.683 61.2428 131.902 62.0832 131.902C62.9592 131.902 63.6901 131.671 64.2761 131.21C64.8679 130.742 65.3118 130.115 65.6077 129.327C65.9096 128.534 66.0605 127.652 66.0605 126.682C66.0605 125.723 65.9125 124.859 65.6166 124.089C65.3266 123.314 64.8857 122.702 64.2938 122.252C63.7079 121.796 62.971 121.568 62.0832 121.568C61.231 121.568 60.5148 121.784 59.9348 122.216C59.3548 122.642 58.9168 123.24 58.6209 124.01C58.3249 124.773 58.177 125.664 58.177 126.682ZM81.0108 122.918L79.1287 123.45C79.0103 123.137 78.8357 122.832 78.6049 122.536C78.38 122.234 78.0722 121.985 77.6816 121.79C77.291 121.595 76.7909 121.497 76.1812 121.497C75.3467 121.497 74.6513 121.69 74.0949 122.074C73.5445 122.453 73.2693 122.935 73.2693 123.521C73.2693 124.042 73.4587 124.453 73.8375 124.755C74.2163 125.057 74.8081 125.309 75.6131 125.51L77.6372 126.007C78.8564 126.303 79.7649 126.756 80.3627 127.365C80.9605 127.969 81.2594 128.747 81.2594 129.7C81.2594 130.482 81.0345 131.18 80.5847 131.795C80.1408 132.411 79.5193 132.896 78.7203 133.251C77.9213 133.607 76.9921 133.784 75.9327 133.784C74.5418 133.784 73.3906 133.482 72.4792 132.879C71.5677 132.275 70.9907 131.393 70.748 130.233L72.7366 129.736C72.926 130.47 73.2841 131.02 73.8109 131.387C74.3435 131.754 75.039 131.938 75.8972 131.938C76.8737 131.938 77.649 131.73 78.2231 131.316C78.8032 130.896 79.0932 130.393 79.0932 129.807C79.0932 129.333 78.9275 128.937 78.596 128.617C78.2646 128.292 77.7556 128.049 77.069 127.889L74.7963 127.357C73.5475 127.061 72.6301 126.602 72.0442 125.98C71.4641 125.353 71.1741 124.569 71.1741 123.628C71.1741 122.858 71.3902 122.178 71.8222 121.586C72.2602 120.994 72.855 120.529 73.6067 120.192C74.3642 119.855 75.2224 119.686 76.1812 119.686C77.5307 119.686 78.5901 119.982 79.3595 120.574C80.1348 121.166 80.6853 121.947 81.0108 122.918ZM90.1305 133.784C88.8166 133.784 87.6832 133.494 86.7303 132.914C85.7834 132.328 85.0524 131.511 84.5375 130.464C84.0285 129.41 83.774 128.185 83.774 126.788C83.774 125.392 84.0285 124.161 84.5375 123.095C85.0524 122.024 85.7686 121.189 86.6859 120.592C87.6092 119.988 88.6864 119.686 89.9175 119.686C90.6277 119.686 91.3291 119.804 92.0215 120.041C92.714 120.278 93.3443 120.663 93.9125 121.195C94.4807 121.722 94.9335 122.42 95.2708 123.29C95.6082 124.161 95.7769 125.232 95.7769 126.504V127.392H85.2655V125.581H93.6462C93.6462 124.812 93.4923 124.125 93.1845 123.521C92.8827 122.918 92.4506 122.441 91.8884 122.092C91.332 121.743 90.6751 121.568 89.9175 121.568C89.083 121.568 88.3609 121.775 87.7513 122.19C87.1476 122.598 86.683 123.131 86.3575 123.788C86.0319 124.445 85.8692 125.149 85.8692 125.901V127.108C85.8692 128.138 86.0467 129.011 86.4019 129.727C86.7629 130.437 87.263 130.979 87.9022 131.352C88.5414 131.719 89.2842 131.902 90.1305 131.902C90.681 131.902 91.1781 131.825 91.622 131.671C92.0718 131.511 92.4595 131.275 92.785 130.961C93.1105 130.641 93.3621 130.245 93.5396 129.771L95.5638 130.339C95.3507 131.026 94.9926 131.63 94.4896 132.151C93.9865 132.665 93.365 133.068 92.6252 133.358C91.8854 133.642 91.0538 133.784 90.1305 133.784ZM88.8521 118.017L91.0183 113.898H93.4686L90.6987 118.017H88.8521ZM104.468 138.898C103.456 138.898 102.586 138.768 101.858 138.507C101.13 138.253 100.524 137.915 100.038 137.495C99.5588 137.081 99.1771 136.637 98.893 136.163L100.562 134.991C100.751 135.24 100.991 135.524 101.281 135.844C101.571 136.169 101.968 136.45 102.471 136.687C102.98 136.93 103.646 137.051 104.468 137.051C105.569 137.051 106.478 136.785 107.194 136.252C107.91 135.719 108.268 134.885 108.268 133.749V130.979H108.09C107.937 131.227 107.718 131.535 107.433 131.902C107.155 132.263 106.753 132.586 106.226 132.87C105.705 133.148 105.001 133.287 104.113 133.287C103.012 133.287 102.024 133.027 101.148 132.506C100.278 131.985 99.5884 131.227 99.0794 130.233C98.5763 129.239 98.3248 128.031 98.3248 126.611C98.3248 125.214 98.5704 123.998 99.0617 122.962C99.5529 121.92 100.236 121.115 101.112 120.547C101.988 119.973 103 119.686 104.149 119.686C105.036 119.686 105.741 119.834 106.262 120.13C106.788 120.42 107.191 120.751 107.469 121.124C107.753 121.491 107.972 121.793 108.126 122.03H108.339V119.864H110.363V133.891C110.363 135.062 110.097 136.015 109.564 136.749C109.037 137.489 108.327 138.031 107.433 138.374C106.546 138.723 105.557 138.898 104.468 138.898ZM104.397 131.405C105.238 131.405 105.948 131.212 106.528 130.828C107.108 130.443 107.549 129.89 107.851 129.168C108.153 128.446 108.303 127.581 108.303 126.575C108.303 125.593 108.156 124.726 107.86 123.974C107.564 123.222 107.126 122.634 106.546 122.207C105.966 121.781 105.25 121.568 104.397 121.568C103.509 121.568 102.77 121.793 102.178 122.243C101.592 122.693 101.151 123.296 100.855 124.054C100.565 124.812 100.42 125.652 100.42 126.575C100.42 127.522 100.568 128.36 100.864 129.088C101.166 129.81 101.61 130.378 102.196 130.792C102.787 131.201 103.521 131.405 104.397 131.405ZM123.857 122.918L121.975 123.45C121.857 123.137 121.682 122.832 121.452 122.536C121.227 122.234 120.919 121.985 120.528 121.79C120.138 121.595 119.638 121.497 119.028 121.497C118.193 121.497 117.498 121.69 116.942 122.074C116.391 122.453 116.116 122.935 116.116 123.521C116.116 124.042 116.305 124.453 116.684 124.755C117.063 125.057 117.655 125.309 118.46 125.51L120.484 126.007C121.703 126.303 122.612 126.756 123.209 127.365C123.807 127.969 124.106 128.747 124.106 129.7C124.106 130.482 123.881 131.18 123.431 131.795C122.987 132.411 122.366 132.896 121.567 133.251C120.768 133.607 119.839 133.784 118.779 133.784C117.388 133.784 116.237 133.482 115.326 132.879C114.414 132.275 113.837 131.393 113.595 130.233L115.583 129.736C115.773 130.47 116.131 131.02 116.658 131.387C117.19 131.754 117.886 131.938 118.744 131.938C119.72 131.938 120.496 131.73 121.07 131.316C121.65 130.896 121.94 130.393 121.94 129.807C121.94 129.333 121.774 128.937 121.443 128.617C121.111 128.292 120.602 128.049 119.916 127.889L117.643 127.357C116.394 127.061 115.477 126.602 114.891 125.98C114.311 125.353 114.021 124.569 114.021 123.628C114.021 122.858 114.237 122.178 114.669 121.586C115.107 120.994 115.702 120.529 116.453 120.192C117.211 119.855 118.069 119.686 119.028 119.686C120.377 119.686 121.437 119.982 122.206 120.574C122.982 121.166 123.532 121.947 123.857 122.918ZM126.869 133.5V131.902L134.611 121.959V121.817H127.118V119.864H137.31V121.533L129.781 131.405V131.547H137.558V133.5H126.869ZM144.798 133.82C143.934 133.82 143.15 133.657 142.445 133.331C141.741 133 141.182 132.523 140.768 131.902C140.353 131.275 140.146 130.517 140.146 129.629C140.146 128.848 140.3 128.215 140.608 127.729C140.915 127.238 141.327 126.853 141.842 126.575C142.357 126.297 142.925 126.09 143.546 125.954C144.174 125.812 144.804 125.699 145.437 125.616C146.266 125.51 146.938 125.43 147.453 125.377C147.973 125.318 148.352 125.22 148.589 125.084C148.832 124.948 148.953 124.711 148.953 124.374V124.303C148.953 123.427 148.713 122.746 148.234 122.261C147.76 121.775 147.041 121.533 146.076 121.533C145.076 121.533 144.292 121.752 143.724 122.19C143.156 122.628 142.756 123.095 142.525 123.592L140.537 122.882C140.892 122.054 141.365 121.408 141.957 120.947C142.555 120.479 143.206 120.154 143.91 119.97C144.621 119.781 145.319 119.686 146.005 119.686C146.443 119.686 146.947 119.739 147.515 119.846C148.089 119.946 148.642 120.157 149.175 120.476C149.713 120.796 150.16 121.278 150.515 121.923C150.871 122.568 151.048 123.433 151.048 124.516V133.5H148.953V131.653H148.846C148.704 131.949 148.468 132.266 148.136 132.603C147.805 132.941 147.364 133.228 146.813 133.464C146.263 133.701 145.591 133.82 144.798 133.82ZM145.118 131.938C145.946 131.938 146.645 131.775 147.213 131.449C147.787 131.124 148.219 130.703 148.509 130.189C148.805 129.674 148.953 129.132 148.953 128.564V126.646C148.864 126.753 148.669 126.85 148.367 126.939C148.071 127.022 147.728 127.096 147.337 127.161C146.952 127.22 146.577 127.274 146.21 127.321C145.849 127.362 145.556 127.398 145.331 127.428C144.786 127.499 144.277 127.614 143.804 127.774C143.336 127.928 142.957 128.161 142.667 128.475C142.383 128.783 142.241 129.203 142.241 129.736C142.241 130.464 142.511 131.014 143.049 131.387C143.594 131.754 144.283 131.938 145.118 131.938ZM156.967 115.318V133.5H154.872V115.318H156.967ZM166.345 133.784C165.114 133.784 164.033 133.491 163.104 132.905C162.181 132.319 161.459 131.5 160.938 130.446C160.423 129.393 160.166 128.161 160.166 126.753C160.166 125.332 160.423 124.092 160.938 123.033C161.459 121.974 162.181 121.151 163.104 120.565C164.033 119.979 165.114 119.686 166.345 119.686C167.576 119.686 168.653 119.979 169.576 120.565C170.505 121.151 171.227 121.974 171.742 123.033C172.263 124.092 172.524 125.332 172.524 126.753C172.524 128.161 172.263 129.393 171.742 130.446C171.227 131.5 170.505 132.319 169.576 132.905C168.653 133.491 167.576 133.784 166.345 133.784ZM166.345 131.902C167.28 131.902 168.049 131.662 168.653 131.183C169.257 130.703 169.703 130.073 169.993 129.292C170.283 128.511 170.428 127.664 170.428 126.753C170.428 125.841 170.283 124.992 169.993 124.205C169.703 123.418 169.257 122.781 168.653 122.296C168.049 121.811 167.28 121.568 166.345 121.568C165.409 121.568 164.64 121.811 164.036 122.296C163.433 122.781 162.986 123.418 162.696 124.205C162.406 124.992 162.261 125.841 162.261 126.753C162.261 127.664 162.406 128.511 162.696 129.292C162.986 130.073 163.433 130.703 164.036 131.183C164.64 131.662 165.409 131.902 166.345 131.902ZM177.817 125.297V133.5H175.722V119.864H177.746V121.994H177.924C178.243 121.302 178.728 120.746 179.379 120.325C180.031 119.899 180.871 119.686 181.901 119.686C182.824 119.686 183.632 119.875 184.324 120.254C185.017 120.627 185.556 121.195 185.94 121.959C186.325 122.716 186.517 123.675 186.517 124.835V133.5H184.422V124.977C184.422 123.906 184.144 123.071 183.588 122.474C183.031 121.87 182.268 121.568 181.297 121.568C180.628 121.568 180.031 121.713 179.504 122.003C178.983 122.293 178.572 122.716 178.27 123.273C177.968 123.829 177.817 124.504 177.817 125.297Z" fill="#4B5563"/>
<rect width="140" height="1" transform="translate(30 96)" fill="#B4943E"/>
<path d="M33.3184 76.5V45.2273H38.9835V71.7511H52.757V76.5H33.3184ZM64.1788 76.9734C62.6926 76.9734 61.3539 76.7087 60.1629 76.1793C58.982 75.6398 58.0454 74.8458 57.3532 73.7972C56.6712 72.7487 56.3301 71.4558 56.3301 69.9187C56.3301 68.5953 56.5744 67.5009 57.0631 66.6357C57.5517 65.7704 58.2185 65.0781 59.0634 64.5589C59.9084 64.0398 60.8602 63.6478 61.9189 63.3832C62.9878 63.1083 64.0923 62.9098 65.2325 62.7876C66.6068 62.6451 67.7215 62.5179 68.5766 62.4059C69.4317 62.2837 70.0527 62.1005 70.4395 61.8562C70.8365 61.6017 71.035 61.2098 71.035 60.6804V60.5888C71.035 59.4384 70.694 58.5477 70.0119 57.9165C69.3299 57.2854 68.3475 56.9698 67.0649 56.9698C65.7109 56.9698 64.6369 57.265 63.8429 57.8555C63.0591 58.4459 62.5297 59.1432 62.2548 59.9474L57.0936 59.2145C57.5008 57.7893 58.1727 56.5982 59.1092 55.6413C60.0458 54.6742 61.191 53.9515 62.545 53.473C63.8989 52.9844 65.3953 52.7401 67.0343 52.7401C68.1643 52.7401 69.2892 52.8724 70.409 53.1371C71.5288 53.4018 72.5518 53.8395 73.4782 54.4503C74.4046 55.0509 75.1477 55.8704 75.7076 56.9087C76.2777 57.9471 76.5627 59.245 76.5627 60.8026V76.5H71.2488V73.2781H71.0656C70.7296 73.9296 70.2563 74.5404 69.6455 75.1104C69.0448 75.6703 68.2864 76.1233 67.3703 76.4695C66.4642 76.8054 65.4004 76.9734 64.1788 76.9734ZM65.6142 72.9116C66.7238 72.9116 67.6858 72.6927 68.5002 72.255C69.3146 71.8071 69.9407 71.2166 70.3784 70.4837C70.8263 69.7507 71.0503 68.9516 71.0503 68.0863V65.3224C70.8772 65.465 70.582 65.5973 70.1646 65.7195C69.7574 65.8416 69.2993 65.9485 68.7904 66.0401C68.2814 66.1317 67.7774 66.2132 67.2786 66.2844C66.7798 66.3557 66.3472 66.4168 65.9807 66.4677C65.1561 66.5797 64.4181 66.7629 63.7666 67.0174C63.115 67.2719 62.601 67.6282 62.2243 68.0863C61.8476 68.5342 61.6593 69.1145 61.6593 69.8271C61.6593 70.8451 62.0309 71.6136 62.774 72.1328C63.5171 72.652 64.4639 72.9116 65.6142 72.9116ZM81.8156 76.5V72.9879L93.9093 57.8249V57.6264H82.2126V53.0455H100.674V56.8171L89.1604 71.7205V71.919H101.071V76.5H81.8156ZM113.016 76.9734C111.529 76.9734 110.191 76.7087 109 76.1793C107.819 75.6398 106.882 74.8458 106.19 73.7972C105.508 72.7487 105.167 71.4558 105.167 69.9187C105.167 68.5953 105.411 67.5009 105.9 66.6357C106.389 65.7704 107.055 65.0781 107.9 64.5589C108.745 64.0398 109.697 63.6478 110.756 63.3832C111.825 63.1083 112.929 62.9098 114.069 62.7876C115.444 62.6451 116.558 62.5179 117.413 62.4059C118.269 62.2837 118.89 62.1005 119.276 61.8562C119.673 61.6017 119.872 61.2098 119.872 60.6804V60.5888C119.872 59.4384 119.531 58.5477 118.849 57.9165C118.167 57.2854 117.184 56.9698 115.902 56.9698C114.548 56.9698 113.474 57.265 112.68 57.8555C111.896 58.4459 111.367 59.1432 111.092 59.9474L105.931 59.2145C106.338 57.7893 107.01 56.5982 107.946 55.6413C108.883 54.6742 110.028 53.9515 111.382 53.473C112.736 52.9844 114.232 52.7401 115.871 52.7401C117.001 52.7401 118.126 52.8724 119.246 53.1371C120.366 53.4018 121.389 53.8395 122.315 54.4503C123.241 55.0509 123.985 55.8704 124.545 56.9087C125.115 57.9471 125.4 59.245 125.4 60.8026V76.5H120.086V73.2781H119.902C119.567 73.9296 119.093 74.5404 118.482 75.1104C117.882 75.6703 117.123 76.1233 116.207 76.4695C115.301 76.8054 114.237 76.9734 113.016 76.9734ZM114.451 72.9116C115.561 72.9116 116.523 72.6927 117.337 72.255C118.152 71.8071 118.778 71.2166 119.215 70.4837C119.663 69.7507 119.887 68.9516 119.887 68.0863V65.3224C119.714 65.465 119.419 65.5973 119.002 65.7195C118.594 65.8416 118.136 65.9485 117.627 66.0401C117.118 66.1317 116.614 66.2132 116.116 66.2844C115.617 66.3557 115.184 66.4168 114.818 66.4677C113.993 66.5797 113.255 66.7629 112.603 67.0174C111.952 67.2719 111.438 67.6282 111.061 68.0863C110.685 68.5342 110.496 69.1145 110.496 69.8271C110.496 70.8451 110.868 71.6136 111.611 72.1328C112.354 72.652 113.301 72.9116 114.451 72.9116ZM130.958 76.5V53.0455H136.318V56.9545H136.562C136.989 55.6006 137.722 54.5572 138.761 53.8242C139.809 53.0811 141.005 52.7095 142.349 52.7095C142.655 52.7095 142.996 52.7248 143.372 52.7553C143.759 52.7757 144.08 52.8113 144.334 52.8622V57.9471C144.1 57.8656 143.729 57.7944 143.22 57.7333C142.721 57.662 142.237 57.6264 141.769 57.6264C140.761 57.6264 139.855 57.8453 139.051 58.283C138.257 58.7106 137.631 59.3061 137.173 60.0696C136.715 60.8331 136.486 61.7137 136.486 62.7113V76.5H130.958ZM166.544 59.245L161.505 59.7947C161.363 59.2857 161.113 58.8073 160.757 58.3594C160.411 57.9115 159.943 57.5501 159.352 57.2752C158.762 57.0004 158.039 56.8629 157.184 56.8629C156.034 56.8629 155.066 57.1123 154.283 57.6111C153.509 58.11 153.127 58.7564 153.137 59.5504C153.127 60.2325 153.377 60.7873 153.886 61.2148C154.405 61.6424 155.26 61.9936 156.451 62.2685L160.452 63.1236C162.671 63.602 164.32 64.3604 165.399 65.3988C166.488 66.4371 167.038 67.7962 167.048 69.4759C167.038 70.9519 166.605 72.255 165.75 73.3849C164.905 74.5047 163.73 75.3802 162.223 76.0114C160.716 76.6425 158.986 76.9581 157.031 76.9581C154.16 76.9581 151.85 76.3575 150.099 75.1562C148.348 73.9448 147.304 72.2601 146.968 70.1019L152.359 69.5827C152.603 70.6415 153.122 71.4406 153.916 71.9801C154.71 72.5196 155.743 72.7894 157.016 72.7894C158.329 72.7894 159.383 72.5196 160.177 71.9801C160.981 71.4406 161.383 70.7738 161.383 69.9798C161.383 69.3079 161.124 68.7531 160.604 68.3153C160.095 67.8776 159.301 67.5417 158.222 67.3075L154.222 66.4677C151.972 65.9994 150.307 65.2105 149.228 64.1009C148.149 62.9811 147.615 61.5661 147.625 59.8558C147.615 58.4103 148.007 57.1581 148.801 56.0994C149.605 55.0305 150.72 54.206 152.145 53.6257C153.58 53.0353 155.234 52.7401 157.108 52.7401C159.856 52.7401 162.019 53.3254 163.597 54.4961C165.185 55.6668 166.168 57.2498 166.544 59.245Z" fill="#4B5563"/>
</g>
<defs>
<clipPath id="clip0_85_41">
<rect width="200" height="200" rx="20" fill="white"/>
</clipPath>
</defs>
</svg>
