<svg width="200" height="200" viewBox="0 0 200 200" fill="none" xmlns="http://www.w3.org/2000/svg">
<g clip-path="url(#clip0_85_41)">
<rect width="200" height="200" fill="#38363C"/>
<path d="M38.0733 127.091C37.9881 126.371 37.6425 125.812 37.0364 125.415C36.4303 125.017 35.687 124.818 34.8063 124.818C34.1623 124.818 33.5989 124.922 33.1159 125.131C32.6377 125.339 32.2637 125.625 31.9938 125.99C31.7286 126.355 31.5961 126.769 31.5961 127.233C31.5961 127.621 31.6884 127.955 31.873 128.234C32.0624 128.509 32.3039 128.739 32.5975 128.923C32.891 129.103 33.1988 129.252 33.5208 129.371C33.8427 129.484 34.1387 129.577 34.4086 129.648L35.8858 130.045C36.2646 130.145 36.686 130.282 37.15 130.457C37.6188 130.633 38.0662 130.872 38.4924 131.175C38.9232 131.473 39.2784 131.857 39.5577 132.325C39.8371 132.794 39.9767 133.369 39.9767 134.051C39.9767 134.837 39.7708 135.547 39.3588 136.182C38.9516 136.816 38.3551 137.321 37.5691 137.695C36.7878 138.069 35.8385 138.256 34.7211 138.256C33.6794 138.256 32.7774 138.088 32.0151 137.751C31.2575 137.415 30.6609 136.946 30.2253 136.345C29.7944 135.744 29.5506 135.045 29.4938 134.25H31.312C31.3593 134.799 31.544 135.254 31.8659 135.614C32.1926 135.969 32.6046 136.234 33.1017 136.409C33.6036 136.58 34.1434 136.665 34.7211 136.665C35.3934 136.665 35.9971 136.556 36.5321 136.338C37.0672 136.116 37.4909 135.808 37.8034 135.415C38.1159 135.017 38.2722 134.553 38.2722 134.023C38.2722 133.54 38.1373 133.147 37.8674 132.844C37.5975 132.541 37.2424 132.295 36.802 132.105C36.3617 131.916 35.8858 131.75 35.3745 131.608L33.5847 131.097C32.4483 130.77 31.5487 130.304 30.8858 129.697C30.223 129.091 29.8915 128.298 29.8915 127.318C29.8915 126.504 30.1117 125.794 30.552 125.188C30.9971 124.577 31.5937 124.103 32.3418 123.767C33.0946 123.426 33.9351 123.256 34.8631 123.256C35.8006 123.256 36.6339 123.424 37.3631 123.76C38.0923 124.091 38.6699 124.546 39.0961 125.124C39.5269 125.701 39.7542 126.357 39.7779 127.091H38.0733ZM42.3329 138V136.722L48.5261 128.767V128.653H42.5318V127.091H50.6852V128.426L44.6625 136.324V136.438H50.8841V138H42.3329ZM57.7271 138.227C56.676 138.227 55.7692 137.995 55.0069 137.531C54.2493 137.062 53.6646 136.409 53.2527 135.571C52.8455 134.728 52.6419 133.748 52.6419 132.631C52.6419 131.513 52.8455 130.528 53.2527 129.676C53.6646 128.819 54.2375 128.152 54.9714 127.673C55.71 127.19 56.5718 126.949 57.5566 126.949C58.1248 126.949 58.6859 127.044 59.2399 127.233C59.7939 127.422 60.2981 127.73 60.7527 128.156C61.2072 128.578 61.5694 129.136 61.8393 129.832C62.1092 130.528 62.2441 131.385 62.2441 132.403V133.114H53.835V131.665H60.5396C60.5396 131.049 60.4165 130.5 60.1703 130.017C59.9288 129.534 59.5832 129.153 59.1333 128.874C58.6883 128.594 58.1627 128.455 57.5566 128.455C56.889 128.455 56.3114 128.62 55.8237 128.952C55.3407 129.278 54.969 129.705 54.7086 130.23C54.4482 130.756 54.318 131.319 54.318 131.92V132.886C54.318 133.71 54.46 134.409 54.7441 134.982C55.033 135.55 55.4331 135.983 55.9444 136.281C56.4558 136.575 57.05 136.722 57.7271 136.722C58.1674 136.722 58.5652 136.66 58.9203 136.537C59.2801 136.409 59.5903 136.22 59.8507 135.969C60.1111 135.713 60.3123 135.396 60.4544 135.017L62.0737 135.472C61.9032 136.021 61.6168 136.504 61.2143 136.92C60.8118 137.332 60.3147 137.654 59.7228 137.886C59.131 138.114 58.4657 138.227 57.7271 138.227ZM56.7044 125.614L58.4373 122.318H60.3975L58.1816 125.614H56.7044ZM64.7939 142.091V127.091H66.4132V128.824H66.612C66.7351 128.634 66.9056 128.393 67.1234 128.099C67.3459 127.801 67.6632 127.536 68.0751 127.304C68.4918 127.067 69.0552 126.949 69.7654 126.949C70.684 126.949 71.4937 127.179 72.1944 127.638C72.8952 128.097 73.4421 128.748 73.8351 129.591C74.228 130.434 74.4245 131.428 74.4245 132.574C74.4245 133.729 74.228 134.731 73.8351 135.578C73.4421 136.421 72.8975 137.074 72.2015 137.538C71.5055 137.998 70.7029 138.227 69.7939 138.227C69.0931 138.227 68.532 138.111 68.1106 137.879C67.6892 137.643 67.3649 137.375 67.1376 137.077C66.9103 136.774 66.7351 136.523 66.612 136.324H66.47V142.091H64.7939ZM66.4416 132.545C66.4416 133.369 66.5623 134.096 66.8038 134.726C67.0453 135.351 67.398 135.841 67.862 136.196C68.3261 136.546 68.8942 136.722 69.5666 136.722C70.2673 136.722 70.8521 136.537 71.3208 136.168C71.7943 135.794 72.1494 135.292 72.3862 134.662C72.6277 134.027 72.7484 133.322 72.7484 132.545C72.7484 131.778 72.63 131.087 72.3933 130.472C72.1613 129.851 71.8085 129.361 71.335 129.001C70.8663 128.637 70.2768 128.455 69.5666 128.455C68.8848 128.455 68.3118 128.627 67.8478 128.973C67.3838 129.314 67.0334 129.792 66.7967 130.408C66.56 131.018 66.4416 131.731 66.4416 132.545ZM84.7086 129.534L83.2029 129.96C83.1083 129.709 82.9686 129.465 82.7839 129.229C82.604 128.987 82.3578 128.788 82.0453 128.632C81.7328 128.476 81.3327 128.398 80.845 128.398C80.1774 128.398 79.621 128.552 79.176 128.859C78.7356 129.162 78.5154 129.548 78.5154 130.017C78.5154 130.434 78.667 130.763 78.97 131.004C79.273 131.246 79.7465 131.447 80.3904 131.608L82.0098 132.006C82.9851 132.242 83.7119 132.605 84.1902 133.092C84.6684 133.575 84.9075 134.198 84.9075 134.96C84.9075 135.585 84.7276 136.144 84.3677 136.636C84.0126 137.129 83.5154 137.517 82.8762 137.801C82.237 138.085 81.4937 138.227 80.6461 138.227C79.5334 138.227 78.6125 137.986 77.8833 137.503C77.1542 137.02 76.6925 136.314 76.4984 135.386L78.0893 134.989C78.2408 135.576 78.5273 136.016 78.9487 136.31C79.3748 136.603 79.9312 136.75 80.6177 136.75C81.399 136.75 82.0192 136.584 82.4785 136.253C82.9425 135.917 83.1745 135.514 83.1745 135.045C83.1745 134.667 83.042 134.349 82.7768 134.094C82.5117 133.833 82.1045 133.639 81.5552 133.511L79.737 133.085C78.738 132.848 78.0041 132.482 77.5353 131.984C77.0713 131.482 76.8393 130.855 76.8393 130.102C76.8393 129.487 77.0121 128.942 77.3578 128.469C77.7082 127.995 78.184 127.624 78.7853 127.354C79.3914 127.084 80.0779 126.949 80.845 126.949C81.9245 126.949 82.7721 127.186 83.3876 127.659C84.0079 128.133 84.4482 128.758 84.7086 129.534ZM92.0044 138.227C90.9533 138.227 90.0466 137.995 89.2843 137.531C88.5267 137.062 87.9419 136.409 87.53 135.571C87.1228 134.728 86.9192 133.748 86.9192 132.631C86.9192 131.513 87.1228 130.528 87.53 129.676C87.9419 128.819 88.5149 128.152 89.2488 127.673C89.9874 127.19 90.8491 126.949 91.834 126.949C92.4022 126.949 92.9632 127.044 93.5172 127.233C94.0712 127.422 94.5755 127.73 95.03 128.156C95.4846 128.578 95.8468 129.136 96.1167 129.832C96.3865 130.528 96.5215 131.385 96.5215 132.403V133.114H88.1124V131.665H94.8169C94.8169 131.049 94.6938 130.5 94.4476 130.017C94.2061 129.534 93.8605 129.153 93.4107 128.874C92.9656 128.594 92.44 128.455 91.834 128.455C91.1664 128.455 90.5887 128.62 90.101 128.952C89.6181 129.278 89.2464 129.705 88.986 130.23C88.7256 130.756 88.5953 131.319 88.5953 131.92V132.886C88.5953 133.71 88.7374 134.409 89.0215 134.982C89.3103 135.55 89.7104 135.983 90.2218 136.281C90.7331 136.575 91.3274 136.722 92.0044 136.722C92.4448 136.722 92.8425 136.66 93.1976 136.537C93.5575 136.409 93.8676 136.22 94.128 135.969C94.3884 135.713 94.5897 135.396 94.7317 135.017L96.351 135.472C96.1806 136.021 95.8941 136.504 95.4917 136.92C95.0892 137.332 94.592 137.654 94.0002 137.886C93.4083 138.114 92.7431 138.227 92.0044 138.227ZM90.9817 125.614L92.7147 122.318H94.6749L92.459 125.614H90.9817ZM103.475 142.318C102.665 142.318 101.969 142.214 101.387 142.006C100.804 141.802 100.319 141.532 99.9306 141.196C99.5471 140.865 99.2417 140.509 99.0144 140.131L100.35 139.193C100.501 139.392 100.693 139.619 100.925 139.875C101.157 140.135 101.474 140.36 101.877 140.55C102.284 140.744 102.816 140.841 103.475 140.841C104.355 140.841 105.082 140.628 105.655 140.202C106.228 139.776 106.514 139.108 106.514 138.199V135.983H106.372C106.249 136.182 106.074 136.428 105.847 136.722C105.624 137.01 105.302 137.268 104.881 137.496C104.464 137.718 103.901 137.83 103.191 137.83C102.31 137.83 101.519 137.621 100.818 137.205C100.122 136.788 99.5707 136.182 99.1635 135.386C98.7611 134.591 98.5598 133.625 98.5598 132.489C98.5598 131.371 98.7563 130.398 99.1493 129.57C99.5423 128.736 100.089 128.092 100.79 127.638C101.491 127.179 102.3 126.949 103.219 126.949C103.929 126.949 104.493 127.067 104.909 127.304C105.331 127.536 105.653 127.801 105.875 128.099C106.102 128.393 106.278 128.634 106.401 128.824H106.571V127.091H108.191V138.312C108.191 139.25 107.977 140.012 107.551 140.599C107.13 141.191 106.562 141.625 105.847 141.899C105.137 142.179 104.346 142.318 103.475 142.318ZM103.418 136.324C104.09 136.324 104.658 136.17 105.122 135.862C105.586 135.554 105.939 135.112 106.181 134.534C106.422 133.956 106.543 133.265 106.543 132.46C106.543 131.674 106.424 130.981 106.188 130.379C105.951 129.778 105.601 129.307 105.137 128.966C104.673 128.625 104.1 128.455 103.418 128.455C102.708 128.455 102.116 128.634 101.642 128.994C101.173 129.354 100.821 129.837 100.584 130.443C100.352 131.049 100.236 131.722 100.236 132.46C100.236 133.218 100.354 133.888 100.591 134.47C100.833 135.048 101.188 135.502 101.656 135.834C102.13 136.161 102.717 136.324 103.418 136.324ZM118.986 129.534L117.48 129.96C117.386 129.709 117.246 129.465 117.061 129.229C116.881 128.987 116.635 128.788 116.323 128.632C116.01 128.476 115.61 128.398 115.122 128.398C114.455 128.398 113.898 128.552 113.453 128.859C113.013 129.162 112.793 129.548 112.793 130.017C112.793 130.434 112.944 130.763 113.247 131.004C113.55 131.246 114.024 131.447 114.668 131.608L116.287 132.006C117.262 132.242 117.989 132.605 118.468 133.092C118.946 133.575 119.185 134.198 119.185 134.96C119.185 135.585 119.005 136.144 118.645 136.636C118.29 137.129 117.793 137.517 117.154 137.801C116.514 138.085 115.771 138.227 114.923 138.227C113.811 138.227 112.89 137.986 112.161 137.503C111.432 137.02 110.97 136.314 110.776 135.386L112.367 134.989C112.518 135.576 112.805 136.016 113.226 136.31C113.652 136.603 114.209 136.75 114.895 136.75C115.676 136.75 116.297 136.584 116.756 136.253C117.22 135.917 117.452 135.514 117.452 135.045C117.452 134.667 117.319 134.349 117.054 134.094C116.789 133.833 116.382 133.639 115.833 133.511L114.014 133.085C113.015 132.848 112.281 132.482 111.813 131.984C111.349 131.482 111.117 130.855 111.117 130.102C111.117 129.487 111.289 128.942 111.635 128.469C111.985 127.995 112.461 127.624 113.063 127.354C113.669 127.084 114.355 126.949 115.122 126.949C116.202 126.949 117.049 127.186 117.665 127.659C118.285 128.133 118.726 128.758 118.986 129.534ZM121.395 138V136.722L127.589 128.767V128.653H121.594V127.091H129.748V128.426L123.725 136.324V136.438H129.947V138H121.395ZM135.738 138.256C135.047 138.256 134.42 138.125 133.856 137.865C133.293 137.6 132.845 137.219 132.514 136.722C132.183 136.22 132.017 135.614 132.017 134.903C132.017 134.278 132.14 133.772 132.386 133.384C132.632 132.991 132.961 132.683 133.373 132.46C133.785 132.238 134.24 132.072 134.737 131.963C135.239 131.849 135.743 131.759 136.25 131.693C136.913 131.608 137.45 131.544 137.862 131.501C138.279 131.454 138.582 131.376 138.771 131.267C138.965 131.158 139.062 130.969 139.062 130.699V130.642C139.062 129.941 138.871 129.397 138.487 129.009C138.108 128.62 137.533 128.426 136.761 128.426C135.961 128.426 135.334 128.601 134.879 128.952C134.425 129.302 134.105 129.676 133.92 130.074L132.329 129.506C132.613 128.843 132.992 128.327 133.466 127.957C133.944 127.583 134.465 127.323 135.028 127.176C135.596 127.025 136.155 126.949 136.704 126.949C137.055 126.949 137.457 126.991 137.912 127.077C138.371 127.157 138.814 127.325 139.24 127.581C139.671 127.837 140.028 128.223 140.312 128.739C140.596 129.255 140.738 129.946 140.738 130.812V138H139.062V136.523H138.977C138.863 136.759 138.674 137.013 138.409 137.283C138.144 137.553 137.791 137.782 137.351 137.972C136.91 138.161 136.373 138.256 135.738 138.256ZM135.994 136.75C136.657 136.75 137.216 136.62 137.67 136.359C138.13 136.099 138.475 135.763 138.707 135.351C138.944 134.939 139.062 134.506 139.062 134.051V132.517C138.991 132.602 138.835 132.68 138.594 132.751C138.357 132.818 138.082 132.877 137.77 132.929C137.462 132.976 137.161 133.019 136.868 133.057C136.579 133.09 136.345 133.118 136.165 133.142C135.729 133.199 135.322 133.291 134.943 133.419C134.569 133.542 134.266 133.729 134.034 133.98C133.807 134.226 133.693 134.562 133.693 134.989C133.693 135.571 133.908 136.011 134.339 136.31C134.775 136.603 135.327 136.75 135.994 136.75ZM145.474 123.455V138H143.798V123.455H145.474ZM152.976 138.227C151.991 138.227 151.127 137.993 150.383 137.524C149.645 137.055 149.067 136.4 148.65 135.557C148.238 134.714 148.032 133.729 148.032 132.602C148.032 131.466 148.238 130.474 148.65 129.626C149.067 128.779 149.645 128.121 150.383 127.652C151.127 127.183 151.991 126.949 152.976 126.949C153.961 126.949 154.822 127.183 155.561 127.652C156.304 128.121 156.882 128.779 157.294 129.626C157.711 130.474 157.919 131.466 157.919 132.602C157.919 133.729 157.711 134.714 157.294 135.557C156.882 136.4 156.304 137.055 155.561 137.524C154.822 137.993 153.961 138.227 152.976 138.227ZM152.976 136.722C153.724 136.722 154.339 136.53 154.822 136.146C155.305 135.763 155.663 135.259 155.895 134.634C156.127 134.009 156.243 133.331 156.243 132.602C156.243 131.873 156.127 131.194 155.895 130.564C155.663 129.934 155.305 129.425 154.822 129.037C154.339 128.649 153.724 128.455 152.976 128.455C152.228 128.455 151.612 128.649 151.129 129.037C150.646 129.425 150.289 129.934 150.057 130.564C149.825 131.194 149.709 131.873 149.709 132.602C149.709 133.331 149.825 134.009 150.057 134.634C150.289 135.259 150.646 135.763 151.129 136.146C151.612 136.53 152.228 136.722 152.976 136.722ZM162.154 131.438V138H160.477V127.091H162.097V128.795H162.239C162.494 128.241 162.883 127.796 163.404 127.46C163.924 127.119 164.597 126.949 165.421 126.949C166.159 126.949 166.806 127.1 167.36 127.403C167.914 127.702 168.344 128.156 168.652 128.767C168.96 129.373 169.114 130.14 169.114 131.068V138H167.438V131.182C167.438 130.325 167.215 129.657 166.77 129.179C166.325 128.696 165.714 128.455 164.938 128.455C164.403 128.455 163.924 128.571 163.503 128.803C163.086 129.035 162.757 129.373 162.516 129.818C162.274 130.263 162.154 130.803 162.154 131.438Z" fill="#D1D5DB"/>
<rect width="100.62" height="1" transform="translate(50 103)" fill="#B4943E"/>
<path d="M53.3268 78V56.1818H57.2792V74.6868H66.8886V78H53.3268ZM74.8573 78.3303C73.8204 78.3303 72.8865 78.1456 72.0555 77.7763C71.2316 77.3999 70.5782 76.8459 70.0953 76.1143C69.6194 75.3828 69.3815 74.4808 69.3815 73.4084C69.3815 72.4851 69.5519 71.7216 69.8928 71.1179C70.2338 70.5142 70.699 70.0312 71.2884 69.669C71.8779 69.3068 72.542 69.0334 73.2806 68.8487C74.0264 68.657 74.797 68.5185 75.5924 68.4332C76.5512 68.3338 77.3289 68.245 77.9255 68.1669C78.5221 68.0817 78.9553 67.9538 79.2252 67.7834C79.5022 67.6058 79.6407 67.3324 79.6407 66.9631V66.8991C79.6407 66.0966 79.4028 65.4751 78.9269 65.0348C78.4511 64.5945 77.7657 64.3743 76.8708 64.3743C75.9262 64.3743 75.1769 64.5803 74.623 64.9922C74.0761 65.4041 73.7068 65.8906 73.515 66.4517L69.9142 65.9403C70.1982 64.946 70.667 64.1151 71.3204 63.4474C71.9738 62.7727 72.7728 62.2685 73.7174 61.9347C74.662 61.5938 75.7061 61.4233 76.8495 61.4233C77.6379 61.4233 78.4227 61.5156 79.2039 61.7003C79.9852 61.8849 80.699 62.1903 81.3453 62.6165C81.9916 63.0355 82.51 63.6072 82.9007 64.3317C83.2984 65.0561 83.4972 65.9616 83.4972 67.0483V78H79.7899V75.7521H79.662C79.4276 76.2067 79.0974 76.6328 78.6713 77.0305C78.2522 77.4212 77.7231 77.7372 77.0839 77.9787C76.4518 78.2131 75.7096 78.3303 74.8573 78.3303ZM75.8588 75.4964C76.6329 75.4964 77.3041 75.3437 77.8722 75.0384C78.4404 74.7259 78.8772 74.3139 79.1826 73.8026C79.4951 73.2912 79.6514 72.7337 79.6514 72.13V70.2017C79.5306 70.3011 79.3247 70.3935 79.0335 70.4787C78.7494 70.5639 78.4298 70.6385 78.0747 70.7024C77.7195 70.7663 77.368 70.8232 77.02 70.8729C76.672 70.9226 76.3701 70.9652 76.1144 71.0007C75.5392 71.0788 75.0242 71.2067 74.5697 71.3842C74.1151 71.5618 73.7565 71.8104 73.4937 72.13C73.2309 72.4425 73.0995 72.8473 73.0995 73.3445C73.0995 74.0547 73.3588 74.5909 73.8772 74.9531C74.3957 75.3153 75.0562 75.4964 75.8588 75.4964ZM87.162 78V75.5497L95.5995 64.9709V64.8324H87.439V61.6364H100.319V64.2678L92.2863 74.6655V74.804H100.596V78H87.162ZM108.93 78.3303C107.893 78.3303 106.959 78.1456 106.128 77.7763C105.304 77.3999 104.65 76.8459 104.168 76.1143C103.692 75.3828 103.454 74.4808 103.454 73.4084C103.454 72.4851 103.624 71.7216 103.965 71.1179C104.306 70.5142 104.771 70.0312 105.361 69.669C105.95 69.3068 106.614 69.0334 107.353 68.8487C108.099 68.657 108.869 68.5185 109.665 68.4332C110.623 68.3338 111.401 68.245 111.998 68.1669C112.594 68.0817 113.028 67.9538 113.297 67.7834C113.574 67.6058 113.713 67.3324 113.713 66.9631V66.8991C113.713 66.0966 113.475 65.4751 112.999 65.0348C112.523 64.5945 111.838 64.3743 110.943 64.3743C109.998 64.3743 109.249 64.5803 108.695 64.9922C108.148 65.4041 107.779 65.8906 107.587 66.4517L103.986 65.9403C104.271 64.946 104.739 64.1151 105.393 63.4474C106.046 62.7727 106.845 62.2685 107.79 61.9347C108.734 61.5938 109.778 61.4233 110.922 61.4233C111.71 61.4233 112.495 61.5156 113.276 61.7003C114.057 61.8849 114.771 62.1903 115.418 62.6165C116.064 63.0355 116.582 63.6072 116.973 64.3317C117.371 65.0561 117.57 65.9616 117.57 67.0483V78H113.862V75.7521H113.734C113.5 76.2067 113.17 76.6328 112.744 77.0305C112.324 77.4212 111.795 77.7372 111.156 77.9787C110.524 78.2131 109.782 78.3303 108.93 78.3303ZM109.931 75.4964C110.705 75.4964 111.376 75.3437 111.945 75.0384C112.513 74.7259 112.949 74.3139 113.255 73.8026C113.567 73.2912 113.724 72.7337 113.724 72.13V70.2017C113.603 70.3011 113.397 70.3935 113.106 70.4787C112.822 70.5639 112.502 70.6385 112.147 70.7024C111.792 70.7663 111.44 70.8232 111.092 70.8729C110.744 70.9226 110.442 70.9652 110.187 71.0007C109.611 71.0788 109.097 71.2067 108.642 71.3842C108.187 71.5618 107.829 71.8104 107.566 72.13C107.303 72.4425 107.172 72.8473 107.172 73.3445C107.172 74.0547 107.431 74.5909 107.949 74.9531C108.468 75.3153 109.128 75.4964 109.931 75.4964ZM121.447 78V61.6364H125.187V64.3636H125.357C125.655 63.419 126.167 62.6911 126.891 62.1797C127.623 61.6612 128.457 61.402 129.395 61.402C129.608 61.402 129.846 61.4126 130.109 61.4339C130.378 61.4482 130.602 61.473 130.78 61.5085V65.0561C130.616 64.9993 130.357 64.9496 130.002 64.907C129.654 64.8572 129.317 64.8324 128.99 64.8324C128.287 64.8324 127.655 64.9851 127.094 65.2905C126.54 65.5888 126.103 66.0043 125.783 66.5369C125.464 67.0696 125.304 67.6839 125.304 68.38V78H121.447ZM146.275 65.9616L142.759 66.3452C142.66 65.9901 142.486 65.6562 142.237 65.3438C141.996 65.0312 141.669 64.7791 141.257 64.5874C140.845 64.3956 140.341 64.2997 139.745 64.2997C138.942 64.2997 138.267 64.4737 137.72 64.8217C137.181 65.1697 136.914 65.6207 136.921 66.1747C136.914 66.6506 137.088 67.0376 137.443 67.3359C137.806 67.6342 138.402 67.8793 139.233 68.071L142.024 68.6676C143.573 69.0014 144.723 69.5305 145.476 70.255C146.236 70.9794 146.62 71.9276 146.627 73.0994C146.62 74.1293 146.318 75.0384 145.721 75.8267C145.132 76.608 144.311 77.2187 143.26 77.6591C142.209 78.0994 141.002 78.3196 139.638 78.3196C137.635 78.3196 136.023 77.9006 134.801 77.0625C133.58 76.2173 132.852 75.0419 132.617 73.5362L136.378 73.174C136.549 73.9126 136.911 74.4702 137.465 74.8466C138.019 75.223 138.74 75.4112 139.627 75.4112C140.544 75.4112 141.279 75.223 141.833 74.8466C142.394 74.4702 142.674 74.005 142.674 73.451C142.674 72.9822 142.493 72.5952 142.131 72.2898C141.776 71.9844 141.222 71.75 140.469 71.5866L137.678 71.0007C136.108 70.674 134.947 70.1236 134.194 69.3494C133.441 68.5682 133.068 67.581 133.076 66.3878C133.068 65.3793 133.342 64.5057 133.896 63.767C134.457 63.0213 135.235 62.446 136.229 62.0412C137.23 61.6293 138.384 61.4233 139.691 61.4233C141.609 61.4233 143.118 61.8317 144.219 62.6484C145.327 63.4652 146.012 64.5696 146.275 65.9616Z" fill="white"/>
</g>
<defs>
<clipPath id="clip0_85_41">
<rect width="200" height="200" fill="white"/>
</clipPath>
</defs>
</svg>
